<svg width="20" height="14" viewBox="0 0 20 14" fill="none" xmlns="http://www.w3.org/2000/svg">
<path fill-rule="evenodd" clip-rule="evenodd" d="M0.55957 0.791666C0.55957 0.354441 0.914011 0 1.35124 0H4.5179C4.89523 0 5.22012 0.266305 5.29417 0.636296L5.95908 3.95833H18.7679C19.0038 3.95833 19.2275 4.06357 19.3779 4.24535C19.5283 4.42714 19.5897 4.66654 19.5455 4.8983L18.2778 11.5463C18.1692 12.093 17.8717 12.5841 17.4375 12.9337C17.0055 13.2814 16.4654 13.467 15.9111 13.4583H8.22974C7.67536 13.467 7.13531 13.2814 6.70328 12.9337C6.26926 12.5843 5.9719 12.0934 5.8632 11.547C5.86316 11.5468 5.86325 11.5472 5.8632 11.547L4.54069 4.93937C4.53533 4.91751 4.53087 4.8953 4.52736 4.87277L3.86899 1.58333H1.35124C0.914011 1.58333 0.55957 1.22889 0.55957 0.791666ZM6.27598 5.54166L7.41607 11.2378C7.45226 11.4201 7.5514 11.5838 7.69614 11.7003C7.84087 11.8168 8.02197 11.8787 8.20773 11.8751L8.2229 11.875H15.9179L15.9331 11.8751C16.1188 11.8787 16.2999 11.8168 16.4447 11.7003C16.5887 11.5843 16.6876 11.4216 16.7242 11.2404L17.811 5.54166H6.27598Z" fill="#8D909B"/>
</svg>
