<svg width="21" height="20" viewBox="0 0 21 20" fill="none" xmlns="http://www.w3.org/2000/svg">
<path fill-rule="evenodd" clip-rule="evenodd" d="M9.3788 0.660773C9.70736 -0.220257 10.9502 -0.220258 11.2788 0.660773L13.3688 6.26514L19.3305 6.52634C20.2677 6.5674 20.6518 7.7526 19.9176 8.33817L15.2476 12.0631L16.8422 17.8288C17.0928 18.7353 16.0873 19.4677 15.305 18.9486L10.3288 15.6464L5.35256 18.9486C4.57027 19.4677 3.56477 18.7353 3.81544 17.8288L5.40995 12.0631L0.739952 8.33817C0.00580737 7.7526 0.389876 6.5674 1.32708 6.52634L7.28878 6.26514L9.3788 0.660773ZM10.3288 2.46874L8.59623 7.11461C8.45369 7.49683 8.0971 7.7566 7.69051 7.77442L2.74841 7.99094L6.61972 11.0788C6.93821 11.3328 7.07442 11.7531 6.96567 12.1464L5.64386 16.9261L9.76903 14.1886C10.1084 13.9634 10.5492 13.9634 10.8886 14.1886L15.0137 16.9261L13.6919 12.1464C13.5832 11.7531 13.7194 11.3328 14.0379 11.0788L17.9092 7.99094L12.9671 7.77442C12.5605 7.7566 12.2039 7.49683 12.0614 7.11461L10.3288 2.46874Z" fill="#8D909B"/>
</svg>
