<svg width="151" height="184" viewBox="0 0 151 184" fill="none" xmlns="http://www.w3.org/2000/svg">
<path d="M150.269 161.245H0.701172V183.999H150.269V161.245Z" fill="#32386B"/>
<path d="M43.7773 169.263L44.7867 167.112C43.5343 166.296 41.7959 165.74 40.0575 165.74C37.1228 165.74 35.1602 167.186 35.1602 169.449C35.1602 174.066 42.1885 172.527 42.1885 175.234C42.1885 176.143 41.3472 176.662 39.9452 176.662C38.5435 176.662 36.7675 175.939 35.4217 174.752L34.375 176.848C35.777 178.09 37.8145 178.925 39.9079 178.925C42.7865 178.925 44.9175 177.515 44.9175 175.086C44.9363 170.432 37.908 171.859 37.908 169.226C37.908 168.429 38.6743 168.002 39.8518 168.002C40.8612 168.002 42.3754 168.429 43.7773 169.263Z" fill="white"/>
<path d="M56.6367 165.852V178.832H59.1415V173.566H65.6652V178.832H68.17V165.852H65.6652V171.396H59.1415V165.852H56.6367Z" fill="white"/>
<path d="M86.6948 165.779C82.7508 165.779 79.7227 168.598 79.7227 172.344C79.7227 176.071 82.7508 178.945 86.6948 178.945C90.6389 178.945 93.6673 176.071 93.6673 172.344C93.6673 168.617 90.6389 165.779 86.6948 165.779ZM86.7322 168.004C89.125 168.004 91.1064 169.896 91.1064 172.344C91.1064 174.791 89.125 176.72 86.7322 176.72C84.3208 176.72 82.2835 174.791 82.2835 172.344C82.2835 169.896 84.3023 168.004 86.7322 168.004Z" fill="white"/>
<path d="M110.576 165.852H105.212V178.832H107.717V175.012H110.576C113.866 175.012 115.754 173.288 115.754 170.321C115.754 167.465 113.866 165.852 110.576 165.852ZM110.446 172.824H107.717V168.021H110.446C112.315 168.021 113.38 168.8 113.38 170.395C113.38 172.027 112.315 172.824 110.446 172.824Z" fill="white"/>
<g opacity="0.5">
<g opacity="0.5">
<path opacity="0.5" d="M120.457 13.8127C120.264 13.8127 120.076 13.8181 119.889 13.8234C122.172 13.904 124.333 14.3603 126.273 15.1491C124.515 14.2959 122.542 13.8127 120.457 13.8127Z" fill="#EA9400"/>
</g>
</g>
<g opacity="0.5">
<g opacity="0.5">
<path opacity="0.5" d="M130.589 35.7039C130.09 36.2567 129.56 36.7879 129.002 37.2871C129.576 36.8093 130.106 36.2781 130.589 35.7039Z" fill="#EA9400"/>
</g>
</g>
<path d="M97.3682 44.6872C97.8292 43.2436 98.3492 41.8323 98.9334 40.4636C98.2956 41.8806 97.7487 43.3189 97.3682 44.6872Z" fill="#EA9400"/>
<path d="M104.643 30.4309C104.643 30.4309 104.638 30.4416 104.622 30.4628C104.627 30.4523 104.638 30.4416 104.643 30.4309Z" fill="#EA9400"/>
<path d="M88.4451 1.61559C81.701 6.56873 85.6841 15.9871 85.6841 15.9871C38.9489 -22.1742 6.66097 16.3843 15.4903 45.6588C15.71 46.3993 15.8977 47.0917 16.0262 47.7409C16.2409 48.5191 16.3588 49.3402 16.3588 50.188C16.3588 55.2218 12.2792 59.3058 7.25083 59.3058C5.20289 59.3058 3.31071 58.6296 1.78809 57.4865C3.5787 67.0658 17.1843 69.057 21.5802 61.2003C25.0969 67.726 30.6719 69.0567 30.6719 69.0567C34.2957 64.5704 32.0873 56.3058 32.0873 56.3058C41.7099 58.7799 51.3968 50.0647 44.669 35.9561C44.669 35.9561 44.5884 47.5263 32.2374 46.147C12.9386 44.0005 18.991 8.21098 48.1747 8.21098C68.8084 8.21098 80.8381 22.3788 88.8632 30.4178C88.8632 30.4178 91.1897 26.8757 94.4115 24.0907C94.2344 23.7848 94.0683 23.4842 93.9182 23.1836C93.9075 23.1569 93.8915 23.1353 93.8809 23.114C88.3805 12.311 95.6552 4.06267 105.712 8.69388C101.402 0.257915 93.2267 -1.89954 88.4451 1.61559Z" fill="#EA9400"/>
<path d="M21.8613 94.7153C23.0461 96.2556 24.6007 97.4093 26.4073 98.1661C24.649 97.3664 23.0944 96.1803 21.8613 94.7153Z" fill="#EA9400"/>
<g opacity="0.5">
<g opacity="0.5">
<path opacity="0.5" d="M26.4082 98.1667C28.0434 98.9072 29.8553 99.3258 31.7638 99.3258C32.3749 99.3258 32.9752 99.2828 33.5647 99.2025C30.9488 99.3957 28.5044 99.0468 26.4082 98.1667Z" fill="#EA9400"/>
</g>
</g>
<path d="M41.3369 87.7855C41.348 87.7741 41.3649 87.763 41.3818 87.7461C41.3649 87.763 41.3538 87.7741 41.3369 87.7855Z" fill="#EA9400"/>
<path d="M40.5654 88.4389C40.5769 88.4332 40.5883 88.4217 40.594 88.416C40.5883 88.4217 40.5769 88.4274 40.5654 88.4389Z" fill="#EA9400"/>
<path d="M40.293 88.6588C40.3147 88.6424 40.3309 88.626 40.3526 88.6099C40.3309 88.626 40.3094 88.6424 40.293 88.6588Z" fill="#EA9400"/>
<path d="M42.6455 86.5399C42.694 86.4914 42.7424 86.443 42.7855 86.3945C42.7371 86.443 42.694 86.4914 42.6455 86.5399Z" fill="#EA9400"/>
<path d="M41.8193 87.338C41.8568 87.3006 41.8999 87.2628 41.9376 87.2251C41.8999 87.2628 41.8624 87.3006 41.8193 87.338Z" fill="#EA9400"/>
<path d="M42.9229 86.2511C42.9712 86.2031 43.0192 86.1491 43.0675 86.1008C43.0192 86.1548 42.9712 86.2031 42.9229 86.2511Z" fill="#EA9400"/>
<path d="M42.0928 87.0858C42.1359 87.0427 42.1787 86.9996 42.2218 86.9568C42.1787 87.0052 42.1359 87.048 42.0928 87.0858Z" fill="#EA9400"/>
<path d="M38.6768 89.7817C38.6875 89.7763 38.6982 89.771 38.7086 89.7656C38.6982 89.771 38.6875 89.7763 38.6768 89.7817Z" fill="#EA9400"/>
<path d="M38.9365 89.6249C38.953 89.6136 38.9698 89.6026 38.9863 89.5913C38.9698 89.6026 38.953 89.6136 38.9365 89.6249Z" fill="#EA9400"/>
<path d="M39.4717 89.2614C39.493 89.2456 39.5144 89.2295 39.5354 89.219C39.5144 89.2295 39.493 89.2456 39.4717 89.2614Z" fill="#EA9400"/>
<path d="M39.2031 89.4451C39.2192 89.4344 39.241 89.418 39.2628 89.4072C39.241 89.418 39.2192 89.429 39.2031 89.4451Z" fill="#EA9400"/>
<path d="M39.7393 89.063C39.7606 89.0472 39.7819 89.0312 39.803 89.0154C39.7872 89.0312 39.7659 89.0472 39.7393 89.063Z" fill="#EA9400"/>
<path d="M40.0137 88.8636C40.035 88.8475 40.0563 88.8317 40.0777 88.8157C40.0616 88.8317 40.0403 88.8475 40.0137 88.8636Z" fill="#EA9400"/>
<path d="M41.5566 87.583C41.5944 87.5506 41.6268 87.5238 41.6589 87.4915C41.6268 87.5238 41.5944 87.5506 41.5566 87.583Z" fill="#EA9400"/>
<path d="M42.5072 86.6787C42.4641 86.7218 42.4156 86.7703 42.3672 86.8134C42.4156 86.7703 42.4587 86.7272 42.5072 86.6787Z" fill="#EA9400"/>
<path d="M43.75 85.3505C43.8036 85.2915 43.8573 85.2269 43.9109 85.1626C43.8573 85.2216 43.8036 85.2862 43.75 85.3505Z" fill="#EA9400"/>
<path d="M43.4756 85.656C43.5292 85.5975 43.5769 85.5442 43.6304 85.4856C43.5769 85.5442 43.5292 85.6028 43.4756 85.656Z" fill="#EA9400"/>
<path d="M44.0283 85.0266C44.0873 84.9567 44.1516 84.887 44.2109 84.812C44.1463 84.887 44.0873 84.9567 44.0283 85.0266Z" fill="#EA9400"/>
<path d="M43.1982 85.955C43.2462 85.9017 43.2942 85.8485 43.3475 85.7952C43.2995 85.8538 43.2515 85.907 43.1982 85.955Z" fill="#EA9400"/>
<path d="M44.3018 84.7039C44.393 84.591 44.4843 84.4837 44.5756 84.3711C44.4843 84.4837 44.393 84.591 44.3018 84.7039Z" fill="#EA9400"/>
<path d="M39.2559 89.4052C39.3255 89.3569 39.3955 89.3086 39.4651 89.2603C39.4008 89.3086 39.3309 89.3569 39.2559 89.4052Z" fill="#EA9400"/>
<path d="M39.8096 89.0123C39.8795 88.964 39.9492 88.9103 40.0191 88.8567C39.9492 88.9103 39.8795 88.964 39.8096 89.0123Z" fill="#EA9400"/>
<path d="M42.6456 86.5415C42.5974 86.59 42.5543 86.6384 42.5059 86.6815C42.549 86.633 42.5974 86.5846 42.6456 86.5415Z" fill="#EA9400"/>
<path d="M39.5371 89.2147C39.607 89.1664 39.6767 89.1181 39.7464 89.0645C39.6714 89.1181 39.6014 89.1664 39.5371 89.2147Z" fill="#EA9400"/>
<path d="M38.4326 89.9335C38.5129 89.8852 38.5936 89.8315 38.6795 89.7832C38.5989 89.8315 38.5183 89.8852 38.4326 89.9335Z" fill="#EA9400"/>
<path d="M43.0684 86.1011C43.1112 86.0527 43.1596 86.0043 43.2027 85.9558C43.1543 86.0043 43.1112 86.0527 43.0684 86.1011Z" fill="#EA9400"/>
<path d="M36.1055 91.0465C36.8614 90.778 37.6388 90.4024 38.4321 89.9302C37.6388 90.4024 36.8614 90.778 36.1055 91.0465Z" fill="#EA9400"/>
<path d="M38.71 89.7675C38.785 89.7192 38.8599 89.6709 38.9406 89.6226C38.8599 89.6709 38.785 89.7192 38.71 89.7675Z" fill="#EA9400"/>
<path d="M38.9844 89.5932C39.054 89.5449 39.129 89.4966 39.2043 89.4482C39.129 89.4966 39.054 89.5449 38.9844 89.5932Z" fill="#EA9400"/>
<path d="M41.9434 87.225C41.9917 87.1767 42.0453 87.1284 42.0936 87.0801C42.0453 87.1284 41.9917 87.1767 41.9434 87.225Z" fill="#EA9400"/>
<path d="M43.6309 85.4844C43.6737 85.436 43.7114 85.3932 43.7545 85.3447C43.7114 85.3932 43.6683 85.4413 43.6309 85.4844Z" fill="#EA9400"/>
<path d="M42.2207 86.9593C42.2691 86.9108 42.3176 86.8624 42.3661 86.8196C42.3176 86.8624 42.2691 86.9108 42.2207 86.9593Z" fill="#EA9400"/>
<path d="M43.3467 85.7979C43.3898 85.7495 43.4329 85.7064 43.476 85.6582C43.4329 85.7064 43.3898 85.7548 43.3467 85.7979Z" fill="#EA9400"/>
<path d="M42.7852 86.3949C42.8336 86.3464 42.8767 86.298 42.9251 86.2495C42.8767 86.298 42.8336 86.3464 42.7852 86.3949Z" fill="#EA9400"/>
<path d="M41.6592 87.4898C41.7125 87.4418 41.7658 87.3939 41.819 87.3406C41.7658 87.3886 41.7125 87.4418 41.6592 87.4898Z" fill="#EA9400"/>
<path d="M41.3809 87.7394C41.4394 87.6862 41.498 87.6329 41.5566 87.5796C41.498 87.6329 41.4394 87.6862 41.3809 87.7394Z" fill="#EA9400"/>
<path d="M40.082 88.8121C40.1517 88.7584 40.2216 88.7048 40.2913 88.6511C40.2216 88.7101 40.1517 88.7584 40.082 88.8121Z" fill="#EA9400"/>
<path d="M40.3506 88.6091C40.4202 88.5501 40.4955 88.4965 40.5705 88.4375C40.4955 88.4965 40.4202 88.5501 40.3506 88.6091Z" fill="#EA9400"/>
<path d="M44.2051 84.819C44.2372 84.7815 44.2696 84.7438 44.302 84.7061C44.2696 84.7438 44.2372 84.7815 44.2051 84.819Z" fill="#EA9400"/>
<path d="M40.5918 88.4091C40.8385 88.2105 41.0904 88.0012 41.3368 87.7812C41.0904 88.0012 40.8438 88.2105 40.5918 88.4091Z" fill="#EA9400"/>
<path d="M43.917 85.1636C43.9547 85.1206 43.9922 85.0777 44.0299 85.0293C43.9922 85.0777 43.9547 85.1206 43.917 85.1636Z" fill="#EA9400"/>
<path d="M37.7402 71.8438C37.9223 71.8331 38.0988 71.8225 38.2809 71.8115C38.0988 71.8225 37.9223 71.8331 37.7402 71.8438Z" fill="#EA9400"/>
<path d="M37.7041 71.8472C37.7153 71.8472 37.7266 71.8472 37.7434 71.8472C37.7322 71.8416 37.7153 71.8416 37.7041 71.8472Z" fill="#EA9400"/>
<path d="M128.937 52.5435C125.42 46.0178 119.845 44.6868 119.845 44.6868C116.221 49.1733 118.43 57.4376 118.43 57.4376C108.812 54.9583 99.1201 63.6791 105.848 77.7876C105.848 77.7876 105.923 66.2174 118.279 67.5911C137.584 69.7379 131.526 105.527 102.342 105.527C81.9119 105.527 69.6145 90.7157 61.5785 82.6174C59.8738 85.5907 57.8154 88.247 56.2715 90.0716C62.1361 99.7422 53.5268 109.069 44.8047 105.055C49.0933 112.396 56.3894 115.557 61.2087 112.091C69.4644 106.15 64.8325 97.7673 64.8325 97.7673C111.573 135.923 146.525 96.4417 135.026 68.0903C134.737 67.3765 134.619 66.6574 134.49 66.0082C134.276 65.23 134.158 64.4089 134.158 63.5608C134.158 58.5217 138.237 54.4431 143.266 54.4431C145.314 54.4431 147.206 55.1192 148.729 56.2625C146.938 46.6832 133.333 44.6868 128.937 52.5435Z" fill="#EA9400"/>
<path d="M46.5488 81.6858C46.7629 81.3638 46.9718 81.0363 47.1859 80.7037C47.1696 80.693 47.159 80.6877 47.143 80.677C46.7844 81.2939 46.5542 81.6804 46.5488 81.6858Z" fill="#EA9400"/>
<path d="M126.273 15.1546C124.332 14.3658 122.172 13.9096 119.888 13.8289C114.291 13.6359 107.928 15.7074 102.101 20.7303C100.986 21.691 99.8924 22.759 98.8255 23.9395C98.7023 24.0737 98.5735 24.208 98.445 24.342C97.9893 24.8465 94.4137 28.8339 91.4063 32.9072C91.4117 32.9125 91.4117 32.9125 91.417 32.9179C85.6863 40.8013 80.7009 49.8438 76.4498 58.4303C76.4498 58.4303 72.4774 46.5918 66.3768 40.1628C58.668 32.0324 59.0219 18.5677 72.3113 24.1007C72.3113 24.1007 64.5649 11.4998 53.7845 22.6624C53.7845 22.6624 34.0998 15.6858 31.3818 36.0571C50.3483 16.8395 60.2226 44.7726 52.128 69.8878C51.592 71.5624 50.9915 73.1453 50.343 74.6426C49.378 76.8698 48.3111 78.8929 47.1746 80.7068C46.9655 81.0394 46.7511 81.367 46.5367 81.6889L46.3813 81.9195C45.7864 82.7943 45.1805 83.6154 44.564 84.3776C44.4728 84.4902 44.3816 84.6029 44.2907 84.7102C44.2584 84.7478 44.2261 84.7855 44.1941 84.8228C44.1352 84.8928 44.0763 84.9678 44.0117 85.0377C43.9744 85.0804 43.9368 85.1234 43.8992 85.1717C43.8456 85.2361 43.792 85.2953 43.7384 85.3597C43.6955 85.408 43.6579 85.451 43.6152 85.4993C43.5616 85.5583 43.5134 85.6119 43.4598 85.6709C43.4168 85.7192 43.3739 85.7622 43.331 85.8105C43.2827 85.8642 43.2344 85.9178 43.1808 85.9715C43.1379 86.0198 43.0953 86.0681 43.047 86.1162C42.9987 86.1645 42.9504 86.2181 42.9022 86.2665C42.8592 86.3148 42.811 86.3631 42.7627 86.4114C42.7145 86.4597 42.6715 86.5081 42.6233 86.5564C42.5753 86.6047 42.5323 86.653 42.4841 86.696C42.4411 86.739 42.3929 86.787 42.3446 86.83C42.2963 86.8783 42.2481 86.9266 42.1998 86.9696C42.1569 87.0126 42.1142 87.0555 42.0713 87.0983C42.023 87.1466 41.9694 87.1949 41.9212 87.2432C41.8836 87.2808 41.8406 87.3185 41.8033 87.3559C41.7497 87.4042 41.6961 87.4578 41.6422 87.5062C41.6102 87.5385 41.5726 87.5708 41.5406 87.5975C41.4814 87.6511 41.4225 87.7048 41.3636 87.7584C41.3476 87.7691 41.3369 87.78 41.3206 87.7961C41.0743 88.016 40.8223 88.2253 40.5756 88.4239C40.5649 88.4292 40.5596 88.4399 40.5487 88.4453C40.4737 88.5045 40.4041 88.5635 40.3289 88.6172C40.3076 88.6332 40.2913 88.6492 40.27 88.6655C40.2004 88.7192 40.1305 88.7728 40.0609 88.8265C40.0396 88.8425 40.018 88.8585 39.9967 88.8748C39.9268 88.9284 39.8572 88.9768 39.7876 89.0304C39.766 89.0464 39.7447 89.0624 39.7231 89.0787C39.6535 89.1271 39.5839 89.1807 39.514 89.229C39.4927 89.245 39.4714 89.261 39.4498 89.2717C39.3802 89.32 39.3103 89.3684 39.2407 89.4167C39.2194 89.4274 39.2031 89.4436 39.1818 89.4543C39.1122 89.5026 39.037 89.5509 38.9621 89.5993C38.9458 89.6099 38.9298 89.6206 38.9138 89.6313C38.8386 89.6796 38.7637 89.7279 38.6831 89.7763C38.6725 89.7816 38.6618 89.7869 38.6511 89.7923C38.5706 89.8406 38.4903 89.8942 38.4045 89.9426C37.6112 90.4148 36.8339 90.7906 36.0726 91.0589C35.247 91.4615 34.3196 91.6868 33.3385 91.6868C29.8914 91.6868 27.0985 88.8908 27.0985 85.44C27.0985 83.3149 28.16 81.442 29.7736 80.3152C29.9184 80.2132 30.0685 80.1166 30.224 80.0253C31.7143 79.0755 37.8845 77.095 44.2424 79.3545C45.8989 76.8644 46.7564 74.7606 47.1746 73.4566C42.9129 72.1366 34.9147 70.6553 26.7339 74.385C22.0595 76.3439 18.7734 80.9644 18.7734 86.3578C18.7734 89.5456 19.9206 92.4649 21.8237 94.719C23.0565 96.184 24.6111 97.37 26.3694 98.1695C28.4656 99.0496 30.9047 99.3985 33.5262 99.1999C40.0986 98.7061 47.7964 94.767 53.9506 87.0983C55.634 85.0054 57.1993 82.6333 58.5931 79.977C62.3511 72.8287 64.8868 63.6197 65.1331 52.2428C65.1331 52.2428 74.2787 63.3674 77.0503 78.9466C77.0503 78.9466 82.6147 60.9847 87.879 52.4841C87.2838 60.5018 87.9915 69.4263 90.9186 77.6749C91.1813 78.9412 91.417 79.902 91.6154 80.3742C94.8587 88.1716 91.7495 96.5756 82.0035 94.939C82.0035 94.939 94.7033 103.069 99.5869 91.3755C99.5869 91.3755 110.936 95.9531 116.881 88.7942C122.826 81.6353 120.708 74.2187 116.961 71.5031C116.961 71.5031 119.893 81.4903 110.818 84.6245C104.535 86.787 92.7842 79.7677 95.3894 53.9064C95.7057 50.7669 96.3811 47.6649 97.3245 44.6973C97.7053 43.329 98.252 41.8907 98.8901 40.474C99.1311 39.9318 99.3885 39.3899 99.6511 38.8531C101.024 36.0681 102.578 33.5297 103.575 31.9788C104.117 31.1414 104.492 30.5941 104.583 30.4652C104.599 30.4438 104.605 30.4332 104.605 30.4332C105.419 29.3275 106.266 28.2704 107.14 27.2829C110.898 23.2313 114.227 20.6659 117.17 20.065C117.696 19.9414 118.237 19.8718 118.8 19.8718C122.703 19.8718 125.865 23.038 125.865 26.9447C125.865 28.1684 125.554 29.3168 125.008 30.3205C123.582 33.1755 119.647 35.322 112.64 34.6728C112.64 34.6728 111.166 34.5009 109.011 33.932C108.261 33.7334 107.419 33.4814 106.534 33.1755C105.012 34.9731 103.618 37.7637 102.562 40.2271C102.836 40.3397 103.114 40.4524 103.393 40.565C104.696 41.1286 107.333 42.1106 110.684 42.5669C114.554 43.0927 119.373 42.9104 124.177 40.549C125.876 39.7119 127.511 38.6008 128.964 37.2968C129.521 36.7979 130.052 36.2664 130.551 35.7139C132.513 33.3954 133.697 30.3955 133.697 27.122C133.74 21.8573 130.695 17.312 126.273 15.1546Z" fill="#EA9400"/>
<path d="M46.3926 81.9183L46.5482 81.6877C46.4999 81.7627 46.4462 81.838 46.3926 81.9183Z" fill="#EA9400"/>
<path d="M25.8365 154.738L25.756 139.996L18.6101 151.996H15.115L8.01179 140.393V154.738H0.748047V126.923H7.21849L16.9806 142.975L26.5066 126.923H32.9771L33.0573 154.738H25.8365Z" fill="#32386B"/>
<path d="M60.9214 148.658V154.738H38.6152V126.923H60.4067V133.004H46.399V137.694H58.7449V143.576H46.399V148.663H60.9214V148.658Z" fill="#32386B"/>
<path d="M77.431 147.349H73.148V154.738H65.2891V126.923H77.9886C85.5689 126.923 90.3346 130.857 90.3346 137.216C90.3346 141.311 88.3509 144.327 84.8988 145.996L90.8919 154.738H82.4757L77.431 147.349ZM77.5116 133.127H73.148V141.273H77.5116C80.7656 141.273 82.3951 139.766 82.3951 137.222C82.3951 134.635 80.7656 133.127 77.5116 133.127Z" fill="#32386B"/>
<path d="M93.2305 140.834C93.2305 132.489 99.7812 126.371 108.669 126.371C117.558 126.371 124.108 132.489 124.108 140.834C124.108 149.179 117.563 155.296 108.669 155.296C99.7812 155.296 93.2305 149.179 93.2305 140.834ZM116.174 140.834C116.174 136.025 112.883 132.886 108.675 132.886C104.467 132.886 101.175 136.025 101.175 140.834C101.175 145.642 104.472 148.781 108.675 148.781C112.878 148.781 116.174 145.642 116.174 140.834Z" fill="#32386B"/>
<path d="M126.296 152.237L128.874 146.436C131.335 148.068 134.83 149.179 138.041 149.179C141.295 149.179 142.566 148.266 142.566 146.914C142.566 142.503 126.773 145.722 126.773 135.392C126.773 130.423 130.82 126.371 139.076 126.371C142.689 126.371 146.42 127.203 149.154 128.796L146.731 134.635C144.072 133.208 141.451 132.489 139.033 132.489C135.736 132.489 134.546 133.599 134.546 134.989C134.546 139.24 150.302 136.063 150.302 146.313C150.302 151.159 146.254 155.291 137.998 155.291C133.442 155.296 128.917 154.062 126.296 152.237Z" fill="#32386B"/>
</svg>
